<svg width="280" height="96" viewBox="0 0 280 38" fill="none" xmlns="http://www.w3.org/2000/svg">
<path d="M49.3796 26.428L42.4676 18.58L49.3796 10.696H58.2356L51.3236 18.58L58.2356 26.428H49.3796ZM60.8425 20.884C60.8425 18.796 61.2145 16.972 61.9585 15.412C62.7265 13.852 63.7705 12.652 65.0905 11.812C66.4105 10.972 67.8745 10.552 69.4825 10.552C70.7785 10.552 71.9305 10.828 72.9385 11.38C73.9705 11.908 74.7745 12.64 75.3505 13.576V4.36H82.4425V31H75.3505V28.192C74.7985 29.128 74.0185 29.872 73.0105 30.424C72.0025 30.976 70.8145 31.252 69.4465 31.252C67.8385 31.252 66.3745 30.832 65.0545 29.992C63.7585 29.152 62.7265 27.952 61.9585 26.392C61.2145 24.808 60.8425 22.972 60.8425 20.884ZM75.3865 20.884C75.3865 19.588 75.0265 18.568 74.3065 17.824C73.6105 17.08 72.7465 16.708 71.7145 16.708C70.6585 16.708 69.7825 17.08 69.0865 17.824C68.3905 18.544 68.0425 19.564 68.0425 20.884C68.0425 22.18 68.3905 23.212 69.0865 23.98C69.7825 24.724 70.6585 25.096 71.7145 25.096C72.7465 25.096 73.6105 24.724 74.3065 23.98C75.0265 23.236 75.3865 22.204 75.3865 20.884ZM90.0273 8.932C88.7793 8.932 87.7713 8.596 87.0033 7.924C86.2593 7.228 85.8873 6.364 85.8873 5.332C85.8873 4.276 86.2593 3.4 87.0033 2.704C87.7713 2.008 88.7793 1.66 90.0273 1.66C91.2513 1.66 92.2353 2.008 92.9793 2.704C93.7473 3.4 94.1313 4.276 94.1313 5.332C94.1313 6.364 93.7473 7.228 92.9793 7.924C92.2353 8.596 91.2513 8.932 90.0273 8.932ZM93.5193 10.804V31H86.4633V10.804H93.5193ZM107.221 24.34L111.001 10.804H118.525L111.577 31H102.793L95.8455 10.804H103.369L107.221 24.34Z" fill="#3809F3"/>
<path d="M128.147 20.884C128.147 18.796 128.579 16.972 129.443 15.412C130.307 13.852 131.507 12.652 133.043 11.812C134.603 10.972 136.379 10.552 138.371 10.552C140.939 10.552 143.099 11.26 144.851 12.676C146.603 14.068 147.731 16.024 148.235 18.544H140.747C140.315 17.224 139.475 16.564 138.227 16.564C137.339 16.564 136.631 16.936 136.103 17.68C135.599 18.4 135.347 19.468 135.347 20.884C135.347 22.3 135.599 23.38 136.103 24.124C136.631 24.868 137.339 25.24 138.227 25.24C139.499 25.24 140.339 24.58 140.747 23.26H148.235C147.731 25.756 146.603 27.712 144.851 29.128C143.099 30.544 140.939 31.252 138.371 31.252C136.379 31.252 134.603 30.832 133.043 29.992C131.507 29.152 130.307 27.952 129.443 26.392C128.579 24.832 128.147 22.996 128.147 20.884ZM158.222 4.36V31H151.166V4.36H158.222ZM161.089 20.884C161.089 18.796 161.461 16.972 162.205 15.412C162.973 13.852 164.005 12.652 165.301 11.812C166.621 10.972 168.085 10.552 169.693 10.552C171.085 10.552 172.285 10.828 173.293 11.38C174.301 11.932 175.081 12.676 175.633 13.612V10.804H182.689V31H175.633V28.192C175.081 29.128 174.289 29.872 173.257 30.424C172.249 30.976 171.061 31.252 169.693 31.252C168.085 31.252 166.621 30.832 165.301 29.992C164.005 29.152 162.973 27.952 162.205 26.392C161.461 24.808 161.089 22.972 161.089 20.884ZM175.633 20.884C175.633 19.588 175.273 18.568 174.553 17.824C173.857 17.08 172.993 16.708 171.961 16.708C170.905 16.708 170.029 17.08 169.333 17.824C168.637 18.544 168.289 19.564 168.289 20.884C168.289 22.18 168.637 23.212 169.333 23.98C170.029 24.724 170.905 25.096 171.961 25.096C172.993 25.096 173.857 24.724 174.553 23.98C175.273 23.236 175.633 22.204 175.633 20.884ZM195.313 31.252C193.489 31.252 191.857 30.952 190.417 30.352C189.001 29.728 187.873 28.888 187.033 27.832C186.217 26.752 185.761 25.54 185.665 24.196H192.505C192.601 24.844 192.901 25.348 193.405 25.708C193.909 26.068 194.533 26.248 195.277 26.248C195.853 26.248 196.309 26.128 196.645 25.888C196.981 25.648 197.149 25.336 197.149 24.952C197.149 24.448 196.873 24.076 196.321 23.836C195.769 23.596 194.857 23.332 193.585 23.044C192.145 22.756 190.945 22.432 189.985 22.072C189.025 21.712 188.185 21.124 187.465 20.308C186.769 19.492 186.421 18.388 186.421 16.996C186.421 15.796 186.745 14.716 187.393 13.756C188.041 12.772 188.989 11.992 190.237 11.416C191.509 10.84 193.033 10.552 194.809 10.552C197.449 10.552 199.525 11.2 201.037 12.496C202.549 13.792 203.425 15.496 203.665 17.608H197.293C197.173 16.96 196.885 16.468 196.429 16.132C195.997 15.772 195.409 15.592 194.665 15.592C194.089 15.592 193.645 15.7 193.333 15.916C193.045 16.132 192.901 16.432 192.901 16.816C192.901 17.296 193.177 17.668 193.729 17.932C194.281 18.172 195.169 18.424 196.393 18.688C197.857 19 199.069 19.348 200.029 19.732C201.013 20.116 201.865 20.74 202.585 21.604C203.329 22.444 203.701 23.596 203.701 25.06C203.701 26.236 203.353 27.292 202.657 28.228C201.985 29.164 201.013 29.908 199.741 30.46C198.493 30.988 197.017 31.252 195.313 31.252ZM215.774 31.252C213.95 31.252 212.318 30.952 210.878 30.352C209.462 29.728 208.334 28.888 207.494 27.832C206.678 26.752 206.222 25.54 206.126 24.196H212.966C213.062 24.844 213.362 25.348 213.866 25.708C214.37 26.068 214.994 26.248 215.738 26.248C216.314 26.248 216.77 26.128 217.106 25.888C217.442 25.648 217.61 25.336 217.61 24.952C217.61 24.448 217.334 24.076 216.782 23.836C216.23 23.596 215.318 23.332 214.046 23.044C212.606 22.756 211.406 22.432 210.446 22.072C209.486 21.712 208.646 21.124 207.926 20.308C207.23 19.492 206.882 18.388 206.882 16.996C206.882 15.796 207.206 14.716 207.854 13.756C208.502 12.772 209.45 11.992 210.698 11.416C211.97 10.84 213.494 10.552 215.27 10.552C217.91 10.552 219.986 11.2 221.498 12.496C223.01 13.792 223.886 15.496 224.126 17.608H217.754C217.634 16.96 217.346 16.468 216.89 16.132C216.458 15.772 215.87 15.592 215.126 15.592C214.55 15.592 214.106 15.7 213.794 15.916C213.506 16.132 213.362 16.432 213.362 16.816C213.362 17.296 213.638 17.668 214.19 17.932C214.742 18.172 215.63 18.424 216.854 18.688C218.318 19 219.53 19.348 220.49 19.732C221.474 20.116 222.326 20.74 223.046 21.604C223.79 22.444 224.162 23.596 224.162 25.06C224.162 26.236 223.814 27.292 223.118 28.228C222.446 29.164 221.474 29.908 220.202 30.46C218.954 30.988 217.478 31.252 215.774 31.252ZM254.718 10.588V16.96H234.09V10.588H254.718ZM254.718 20.236V26.572H234.09V20.236H254.718ZM260.051 5.62H267.179L263.039 15.772H258.323L260.051 5.62ZM269.015 5.62H276.143L272.003 15.772H267.287L269.015 5.62Z" fill="#E8DEED"/>
</svg>
