<svg width="87" height="96" viewBox="0 0 87 72" fill="none" xmlns="http://www.w3.org/2000/svg">
<path d="M28.2302 25.6H36.1142V31H21.1742V5.62H28.2302V25.6Z" fill="#3809F3"/>
<path d="M37.593 41.972C37.185 41.3 36.621 40.784 35.901 40.424C35.205 40.064 34.377 39.884 33.417 39.884C31.641 39.884 30.237 40.46 29.205 41.612C28.197 42.764 27.693 44.312 27.693 46.256C27.693 48.44 28.233 50.108 29.313 51.26C30.417 52.388 32.013 52.952 34.101 52.952C36.573 52.952 38.337 51.836 39.393 49.604H32.301V44.528H45.477V51.368C44.925 52.712 44.109 53.972 43.029 55.148C41.973 56.324 40.629 57.296 38.997 58.064C37.365 58.808 35.505 59.18 33.417 59.18C30.873 59.18 28.617 58.64 26.649 57.56C24.705 56.456 23.193 54.932 22.113 52.988C21.057 51.02 20.529 48.776 20.529 46.256C20.529 43.76 21.057 41.54 22.113 39.596C23.193 37.628 24.705 36.104 26.649 35.024C28.593 33.92 30.837 33.368 33.381 33.368C36.573 33.368 39.213 34.136 41.301 35.672C43.389 37.208 44.685 39.308 45.189 41.972H37.593Z" fill="#3809F3"/>
<path d="M47.016 31.252C44.64 31.252 42.456 30.7 40.464 29.596C38.472 28.468 36.888 26.92 35.712 24.952C34.56 22.96 33.984 20.716 33.984 18.22C33.984 15.724 34.56 13.492 35.712 11.524C36.888 9.532 38.472 7.984 40.464 6.88C42.456 5.776 44.64 5.224 47.016 5.224C49.416 5.224 51.6 5.776 53.568 6.88C55.56 7.984 57.132 9.532 58.284 11.524C59.436 13.492 60.012 15.724 60.012 18.22C60.012 20.716 59.436 22.96 58.284 24.952C57.132 26.92 55.56 28.468 53.568 29.596C51.576 30.7 49.392 31.252 47.016 31.252ZM47.016 24.7C48.816 24.7 50.232 24.112 51.264 22.936C52.32 21.76 52.848 20.188 52.848 18.22C52.848 16.204 52.32 14.62 51.264 13.468C50.232 12.292 48.816 11.704 47.016 11.704C45.192 11.704 43.764 12.292 42.732 13.468C41.7 14.62 41.184 16.204 41.184 18.22C41.184 20.212 41.7 21.796 42.732 22.972C43.764 24.124 45.192 24.7 47.016 24.7Z" fill="#E8DEED"/>
<path d="M59.016 59.252C56.64 59.252 54.456 58.7 52.464 57.596C50.472 56.468 48.888 54.92 47.712 52.952C46.56 50.96 45.984 48.716 45.984 46.22C45.984 43.724 46.56 41.492 47.712 39.524C48.888 37.532 50.472 35.984 52.464 34.88C54.456 33.776 56.64 33.224 59.016 33.224C61.416 33.224 63.6 33.776 65.568 34.88C67.56 35.984 69.132 37.532 70.284 39.524C71.436 41.492 72.012 43.724 72.012 46.22C72.012 48.716 71.436 50.96 70.284 52.952C69.132 54.92 67.56 56.468 65.568 57.596C63.576 58.7 61.392 59.252 59.016 59.252ZM59.016 52.7C60.816 52.7 62.232 52.112 63.264 50.936C64.32 49.76 64.848 48.188 64.848 46.22C64.848 44.204 64.32 42.62 63.264 41.468C62.232 40.292 60.816 39.704 59.016 39.704C57.192 39.704 55.764 40.292 54.732 41.468C53.7 42.62 53.184 44.204 53.184 46.22C53.184 48.212 53.7 49.796 54.732 50.972C55.764 52.124 57.192 52.7 59.016 52.7Z" fill="#E8DEED"/>
</svg>
